<?xml version="1.0" standalone="no"?>
<!DOCTYPE svg PUBLIC "-//W3C//DTD SVG 20010904//EN"
 "http://www.w3.org/TR/2001/REC-SVG-20010904/DTD/svg10.dtd">
<svg version="1.0" xmlns="http://www.w3.org/2000/svg"
 width="1300.000000pt" height="1300.000000pt" viewBox="0 0 1300.000000 1300.000000"
 preserveAspectRatio="xMidYMid meet">

<g transform="translate(0.000000,1300.000000) scale(0.100000,-0.100000)"
fill="#000000" stroke="none">
<path d="M5745 9589 c-213 -26 -295 -59 -396 -159 -79 -77 -122 -156 -148
-273 -29 -124 -32 -152 -36 -411 -2 -131 -5 -240 -7 -242 -2 -1 -53 2 -113 7
-109 10 -206 6 -249 -11 -13 -5 -88 -23 -167 -40 -79 -17 -157 -36 -172 -42
-62 -24 -58 141 -57 -2147 0 -1598 3 -2096 12 -2111 7 -10 22 -23 34 -29 21
-9 253 -68 699 -176 205 -50 429 -104 900 -220 165 -40 442 -108 615 -150 173
-43 365 -90 427 -105 83 -20 115 -25 124 -16 9 8 10 8 5 -1 -4 -8 6 -15 31
-22 183 -46 177 -45 209 -29 27 14 291 163 359 202 17 10 107 60 200 113 94
52 193 108 220 124 28 16 120 69 205 117 l155 87 3 43 c3 41 -22 281 -53 502
-8 58 -21 164 -30 235 -17 151 -49 416 -105 880 -82 669 -101 825 -131 1070
-16 138 -37 304 -45 370 -37 290 -86 704 -104 865 -21 187 -35 230 -78 250
-22 10 -389 42 -744 66 l-106 7 -5 351 c-5 361 -9 405 -54 540 -23 70 -77 160
-128 211 -99 98 -269 148 -510 148 -82 1 -188 -5 -235 -12 -63 -9 -97 -9 -133
-2 -68 16 -298 21 -392 10z m93 -272 c-77 -154 -90 -229 -95 -576 l-5 -284
-89 7 c-49 3 -129 9 -178 12 l-89 7 -7 116 c-14 217 11 494 54 594 28 65 83
121 144 147 55 24 208 48 263 42 l33 -4 -31 -61z m927 37 c86 -27 157 -100
185 -190 40 -131 53 -286 46 -554 -4 -134 -8 -245 -9 -246 -2 -2 -344 23 -354
25 -2 1 -3 99 -3 219 -1 418 -28 593 -114 741 l-20 34 105 -5 c61 -3 129 -13
164 -24z m-503 -37 c85 -65 120 -144 148 -334 10 -73 14 -501 4 -549 l-6 -29
-141 11 c-78 7 -181 15 -229 19 l-88 7 0 240 c0 413 35 556 156 636 62 42 100
42 156 -1z m-1361 -1127 c125 -11 234 -20 242 -20 14 0 17 -19 19 -132 l3
-133 90 -17 c138 -27 125 -39 125 120 l0 138 83 -8 c45 -4 255 -24 467 -43
212 -19 406 -38 432 -41 l48 -6 2 -176 3 -177 80 -11 c44 -7 91 -13 105 -15
l25 -4 3 184 2 183 43 -6 c23 -3 173 -17 332 -31 160 -14 305 -28 323 -32 l34
-6 -7 -566 c-3 -311 -12 -1283 -20 -2160 -8 -876 -17 -1596 -20 -1599 -3 -3
-137 27 -297 66 -161 40 -475 117 -698 171 -223 55 -488 120 -590 145 -102 25
-297 72 -435 106 -137 33 -306 74 -375 91 -69 17 -171 42 -227 56 l-103 26 0
1964 0 1964 43 -5 c23 -4 144 -15 268 -26z m3029 -143 c0 -7 13 -118 29 -247
17 -129 48 -388 71 -575 22 -187 48 -394 56 -460 8 -66 28 -230 45 -365 80
-662 101 -834 129 -1065 17 -137 44 -358 60 -490 16 -132 36 -298 45 -370 9
-71 20 -159 24 -194 l8 -63 -191 6 c-105 3 -252 9 -328 12 l-136 6 -6 92 c-3
50 -13 231 -21 401 -29 582 -74 1440 -80 1505 -3 36 -16 272 -30 525 -13 253
-27 489 -30 525 -8 90 -35 577 -35 622 l0 37 68 20 c37 11 119 35 182 54 131
40 140 42 140 24z"/>
</g>
</svg>
